HIERARCHY
ROOT pelvis
{
  OFFSET 0 100 0
  CHANNELS 6 Xposition Yposition Zposition Zrotation Xrotation Yrotation
  JOINT pelvis_right_femur
  {
    OFFSET -10.78128 -3.44521 -0.5502486
    CHANNELS 3 Zrotation Xrotation Yrotation
    JOINT right_femur_tibia
    {
      OFFSET -0.8047443 -44.0398 -0.1307829
      CHANNELS 3 Zrotation Xrotation Yrotation
      JOINT right_tibia_foot
      {
        OFFSET 3.006224 -47.83518 -5
        CHANNELS 3 Zrotation Xrotation Yrotation
        End Site
        {
          OFFSET 0 -5 15
        }
      }
    }
  }
  JOINT pelvis_left_femur
  {
    OFFSET 10.78128 -3.44521 -0.5502486
    CHANNELS 3 Zrotation Xrotation Yrotation
    JOINT left_femur_tibia
    {
      OFFSET 0.8047443 -44.0398 -0.1307829
      CHANNELS 3 Zrotation Xrotation Yrotation
      JOINT left_tibia_foot
      {
        OFFSET -4.370144 -48.10324 -4.275266
        CHANNELS 3 Zrotation Xrotation Yrotation
        End Site
        {
          OFFSET 0 -5 15
        }
      }
    }
  }
  JOINT pelvis_spine1
  {
    OFFSET 0 6.468898 -3.129235
    CHANNELS 3 Zrotation Xrotation Yrotation
    JOINT spine1
    {
      OFFSET 0 23.15396 4.99043
      CHANNELS 3 Zrotation Xrotation Yrotation
      JOINT spine2
      {
        OFFSET 0 20.79997 -5.064912
        CHANNELS 3 Zrotation Xrotation Yrotation
        JOINT neck
        {
          OFFSET 0 14.38658 9.616178
          CHANNELS 3 Zrotation Xrotation Yrotation
          End Site
          {
            OFFSET 0 20 0
          }
        }
      }
      JOINT right_manubrium
      {
        OFFSET -5.722621 16.35077 3.967754
        CHANNELS 3 Zrotation Xrotation Yrotation
        JOINT right_clavicle
        {
          OFFSET -13.16364 1.694482 -4.693211
          CHANNELS 3 Zrotation Xrotation Yrotation
          JOINT right_humerus
          {
            OFFSET -28.5034 -0.3100689 -2.792744
            CHANNELS 3 Zrotation Xrotation Yrotation
            JOINT right_radius
            {
              OFFSET -25.15693 0.02248979 -1.271978
              CHANNELS 3 Zrotation Xrotation Yrotation
              End Site
              {
                OFFSET -15 0 0
              }
            }
          }
        }
      }
      JOINT left_manubrium
      {
        OFFSET 5.722621 16.35077 3.967754
        CHANNELS 3 Zrotation Xrotation Yrotation
        JOINT left_clavicle
        {
          OFFSET 13.16364 1.694482 -4.693211
          CHANNELS 3 Zrotation Xrotation Yrotation
          JOINT left_humerus
          {
            OFFSET 29.39168 -1.063119 -2.237045
            CHANNELS 3 Zrotation Xrotation Yrotation
            JOINT left_radius
            {
              OFFSET 24.59957 -0.9528479 0.9047498
              CHANNELS 3 Zrotation Xrotation Yrotation
              End Site
              {
                OFFSET 15 -0 -0
              }
            }
          }
        }
      }
    }
  }
}
MOTION
Frames: 9
Frame Time: 0.0416666666667
0 103.5113 0 0.6785712 0.6192783 0.3609097 3.874984 -14.96304 7.476451 -0 38.45785 -0 -6.731718 -14.95361 -2.550293 -7.377215 6.041463 -20.72794 -0 7.823421 -0 11.18915 -14.3612 24.64618 -3.865417 -4.568698 5.236095 2.794821 10.80407 -8.662594 0.5920236 21.16372 6.61547 2.515534 -25.22909 8.833208 6.572978 -21.39612 12.30352 86.25557 38.18376 -19.10149 -0 0 16.78206 -8.167357 10.64674 5.706859 4.787745 -20.66704 -1.524413 -92.68201 23.72252 24.5 0 0 -16.6349 9.96356 16.32955 2.442371
0.515424 103.875 2.128901 0.5591636 1.284849 0.7548562 4.093435 -17.41504 7.309187 -0 37.64008 -0 -6.504302 -13.62491 -2.130184 -7.473861 7.532143 -20.96031 -0 6.775973 -0 10.95056 -15.62914 24.47113 -3.854928 -4.443093 5.057682 2.89871 10.55036 -8.694303 0.5512452 21.00131 7.001625 2.861511 -25.72174 9.023111 6.675009 -21.02092 12.29315 86.38517 38.25524 -19.72681 -0 0 16.2159 -8.097025 10.20391 5.630947 5.089469 -20.79332 -1.51885 -92.6457 24.06485 23.98719 0 0 -17.61546 9.834468 16.23783 2.657404
1.037035 104.1572 4.550301 0.2772377 2.106641 1.152425 4.561478 -20.42155 6.87631 -0 34.91155 -0 -6.480679 -11.46887 -1.510667 -7.383078 8.853932 -20.56009 -0 7.274359 -0 10.29384 -16.76878 23.68133 -3.666226 -4.177734 4.861642 3.070362 10.40701 -8.774231 0.4632806 20.7271 7.466764 3.319748 -26.36007 9.144916 6.69619 -20.50945 12.37025 86.71664 38.18752 -20.62197 -0 0 15.11779 -8.385684 9.864385 5.74152 5.469443 -21.23776 -1.612706 -92.24949 23.92903 23.02579 0 0 -19.22112 10.07919 15.87947 2.452843
1.565107 104.2901 7.264598 -0.02939764 2.855942 1.55231 4.98917 -23.38997 6.427405 -0 31.83476 -0 -6.465776 -9.459244 -0.9686029 -7.212888 10.11119 -20.07411 -0 7.456133 -0 9.448279 -17.95578 22.77403 -3.457863 -3.838207 4.624784 3.240482 10.21744 -8.840464 0.3887855 20.46617 7.89495 3.745822 -26.9187 9.245675 6.6665 -20.00115 12.4184 86.97857 38.0081 -21.39488 -0 0 14.09832 -8.737334 9.566681 5.916375 5.843814 -21.64016 -1.728356 -91.83875 23.88461 22.01882 0 0 -20.78694 10.116 15.49175 2.464728
2.082896 104.2425 10.30342 -0.3753224 3.443753 1.935704 5.426328 -26.13335 5.947736 -0 28.15846 -0 -6.534698 -7.566949 -0.5518352 -6.913469 11.1471 -19.33217 -0 8.239439 -0 8.254995 -18.93502 21.59209 -3.1845 -3.390313 4.35189 3.415031 10.02878 -8.898041 0.3296351 20.24016 8.248907 4.117996 -27.34286 9.278862 6.568651 -19.44708 12.45234 87.23234 37.68288 -22.07715 -0 0 13.02275 -9.203935 9.375998 6.165152 6.173318 -22.03992 -1.891198 -91.32815 23.83612 20.86759 0 0 -22.31422 9.996131 15.01921 2.629332
2.57135 104.0059 13.65724 -0.7186916 3.77691 2.282284 5.82915 -28.42644 5.511644 -0 24.39638 -0 -6.650669 -5.988546 -0.342831 -6.514602 11.98024 -18.46441 -0 9.566653 -0 6.745786 -19.64856 20.24788 -2.875903 -2.852762 4.041216 3.574861 9.822394 -8.928632 0.3032237 20.09589 8.49301 4.397829 -27.56817 9.246922 6.41725 -18.8595 12.45073 87.44723 37.21579 -22.60423 -0 0 11.98908 -9.700091 9.276257 6.435187 6.414423 -22.34664 -2.090838 -90.80412 23.91954 19.6711 0 0 -23.60043 9.591644 14.52365 3.09064
3.007902 103.6198 17.30778 -1.027701 3.790043 2.567955 6.194685 -30.01289 5.158257 -0 20.91653 -0 -6.825649 -4.778528 -0.371501 -6.048658 12.53091 -17.50554 -0 11.81981 -0 4.996554 -19.9241 18.82387 -2.543423 -2.262203 3.71898 3.705884 9.633416 -8.925787 0.3144721 20.06296 8.60188 4.56372 -27.56268 9.141657 6.227161 -18.2467 12.41983 87.64963 36.63472 -22.97204 -0 0 10.99631 -10.18945 9.275005 6.688107 6.528009 -22.54079 -2.320617 -90.29153 24.11094 18.4902 0 0 -24.52251 8.957836 14.02894 3.790067
3.37142 103.1719 21.23193 -1.270444 3.473627 2.769083 6.522468 -30.69526 4.919934 -0 18.06843 -0 -7.059626 -3.955715 -0.6247347 -5.567235 12.72245 -16.50645 -0 15.27095 -0 3.154665 -19.63902 17.453 -2.208012 -1.67282 3.425956 3.795687 9.495655 -8.885036 0.3625391 20.15477 8.570705 4.613292 -27.32902 8.968782 6.024836 -17.62329 12.37083 87.85938 36.00595 -23.19261 -0 0 10.04367 -10.63157 9.361465 6.883386 6.495656 -22.61664 -2.558193 -89.81925 24.35797 17.39464 0 0 -25.00552 8.205565 13.55608 4.610015
3.645297 102.7839 25.41195 -1.426962 2.878941 2.865755 6.819054 -30.37018 4.808867 -0 16.00484 -0 -7.340513 -3.504731 -1.04988 -5.118664 12.45947 -15.48445 -0 20.10793 -0 1.383369 -18.72423 16.25854 -1.890068 -1.138153 3.213374 3.838683 9.439215 -8.808231 0.4388864 20.36035 8.413851 4.562702 -26.89841 8.738941 5.843123 -17.0016 12.32045 88.08284 35.42729 -23.29253 -0 0 9.117982 -11.00552 9.523907 6.995726 6.324697 -22.5952 -2.769719 -89.39088 24.56286 16.42343 0 0 -25.06489 7.4929 13.10069 5.37983
